<?xml version="1.0" encoding="UTF-8"?>
<svg version="1.1" xmlns="http://www.w3.org/2000/svg" width="298" height="298">
<path d="M0 0 C4.03977721 2.8214317 6.38400407 6.51784236 7.72265625 11.203125 C7.7991179 13.5352052 7.81408924 15.87158378 7.72265625 18.203125 C9.00462891 18.18572266 9.00462891 18.18572266 10.3125 18.16796875 C11.41722656 18.15894531 12.52195313 18.14992187 13.66015625 18.140625 C14.76230469 18.12902344 15.86445312 18.11742187 17 18.10546875 C19.72265625 18.203125 19.72265625 18.203125 20.72265625 19.203125 C20.84875899 22.24716873 20.91136687 25.2672409 20.92578125 28.3125 C20.93148132 29.23146057 20.9371814 30.15042114 20.9430542 31.097229 C20.9525216 33.04755496 20.95904505 34.99789704 20.96289062 36.94824219 C20.97257043 39.92671906 21.00356658 42.90449854 21.03515625 45.8828125 C21.04168862 47.77603756 21.04693817 49.66926757 21.05078125 51.5625 C21.06312805 52.45225525 21.07547485 53.3420105 21.0881958 54.25872803 C21.07097629 59.06273938 20.87966505 62.32062764 17.72265625 66.203125 C13.45418838 69.26766604 9.69919853 70.30907005 4.50830078 70.38012695 C3.68709747 70.39296219 2.86589417 70.40579742 2.01980591 70.41902161 C1.14057465 70.42640854 0.26134338 70.43379547 -0.64453125 70.44140625 C-1.55687531 70.449478 -2.46921936 70.45754974 -3.40921021 70.46586609 C-5.33740351 70.47967877 -7.26562097 70.49041348 -9.19384766 70.49829102 C-11.16267067 70.50982645 -13.13146204 70.53030285 -15.10009766 70.55981445 C-17.94845786 70.60250885 -20.79589072 70.61866115 -23.64453125 70.62890625 C-24.95730545 70.65516838 -24.95730545 70.65516838 -26.29660034 70.68196106 C-32.87530943 70.65870271 -36.54569889 68.93476986 -41.27734375 64.203125 C-42.17648963 61.4745241 -42.40693366 58.96946303 -42.42260742 56.10888672 C-42.42898727 55.31481415 -42.43536713 54.52074158 -42.44194031 53.7026062 C-42.44305313 52.85457428 -42.44416595 52.00654236 -42.4453125 51.1328125 C-42.4486409 50.25537384 -42.4519693 49.37793518 -42.45539856 48.47390747 C-42.46045301 46.62307254 -42.46280734 44.77222854 -42.46264648 42.92138672 C-42.4648411 40.08155513 -42.48303447 37.24210706 -42.50195312 34.40234375 C-42.50488566 32.604168 -42.50687139 30.8059904 -42.5078125 29.0078125 C-42.51499802 28.15573212 -42.52218353 27.30365173 -42.52958679 26.42575073 C-42.50617803 20.43195928 -42.50617803 20.43195928 -40.27734375 18.203125 C-37.67578125 18.0078125 -37.67578125 18.0078125 -34.65234375 18.078125 C-33.14800781 18.10519531 -33.14800781 18.10519531 -31.61328125 18.1328125 C-30.84242187 18.15601563 -30.0715625 18.17921875 -29.27734375 18.203125 C-29.21417969 17.501875 -29.15101562 16.800625 -29.0859375 16.078125 C-28.12141684 8.60562806 -26.03511952 4.12936204 -20.27734375 -0.796875 C-14.00767866 -4.75666348 -6.17660533 -3.4873875 0 0 Z M-17.27734375 11.203125 C-17.60734375 13.513125 -17.93734375 15.823125 -18.27734375 18.203125 C-12.99734375 18.203125 -7.71734375 18.203125 -2.27734375 18.203125 C-2.55617046 11.52178684 -2.55617046 11.52178684 -5.52734375 8.765625 C-10.63089219 5.86588157 -13.80783228 6.37059117 -17.27734375 11.203125 Z M-25.27734375 26.203125 C-25.27734375 27.523125 -25.27734375 28.843125 -25.27734375 30.203125 C-23.95734375 30.203125 -22.63734375 30.203125 -21.27734375 30.203125 C-21.27734375 28.883125 -21.27734375 27.563125 -21.27734375 26.203125 C-22.59734375 26.203125 -23.91734375 26.203125 -25.27734375 26.203125 Z M1.72265625 26.203125 C1.72265625 27.523125 1.72265625 28.843125 1.72265625 30.203125 C2.71265625 29.873125 3.70265625 29.543125 4.72265625 29.203125 C4.39265625 28.213125 4.06265625 27.223125 3.72265625 26.203125 C3.06265625 26.203125 2.40265625 26.203125 1.72265625 26.203125 Z " fill="#EFEEEF" transform="translate(60.27734375,126.796875)"/>
<path d="M0 0 C3.3 0 6.6 0 10 0 C12.39853998 4.56864758 14.24697589 9.15831437 16 14 C16.29003906 13.11248047 16.29003906 13.11248047 16.5859375 12.20703125 C16.84632812 11.41683594 17.10671875 10.62664062 17.375 9.8125 C17.63023438 9.03519531 17.88546875 8.25789062 18.1484375 7.45703125 C19.01991102 4.94255032 20.0116485 2.47087874 21 0 C24.96 0 28.92 0 33 0 C33.02465392 4.53897705 33.04283789 9.07791543 33.05493164 13.61694336 C33.0599714 15.16219766 33.0668032 16.70744716 33.07543945 18.25268555 C33.08752076 20.46925029 33.09323173 22.68575218 33.09765625 24.90234375 C33.10281754 25.5971434 33.10797882 26.29194305 33.11329651 27.00779724 C33.11349277 28.6722933 33.06189129 30.33665499 33 32 C32 33 32 33 28.5 33.125 C25 33 25 33 24 32 C23.76572222 29.98405418 23.58663876 27.961526 23.4375 25.9375 C23.31181641 24.28041016 23.31181641 24.28041016 23.18359375 22.58984375 C23.12300781 21.73519531 23.06242187 20.88054687 23 20 C22.79503906 20.71027344 22.59007813 21.42054688 22.37890625 22.15234375 C22.10949219 23.07144531 21.84007813 23.99054688 21.5625 24.9375 C21.29566406 25.85402344 21.02882813 26.77054688 20.75390625 27.71484375 C20 30 20 30 19 31 C17.00041636 31.04080783 14.99954746 31.04254356 13 31 C11.68 27.7 10.36 24.4 9 21 C8.67 24.96 8.34 28.92 8 33 C5.36 33 2.72 33 0 33 C0 22.11 0 11.22 0 0 Z " fill="#DDDBDB" transform="translate(98,133)"/>
<path d="M0 0 C2.825625 -0.0825 5.65125 -0.165 8.5625 -0.25 C9.43849854 -0.28641602 10.31449707 -0.32283203 11.21704102 -0.36035156 C16.98153091 -0.44107395 20.28345078 0.65317138 25 4 C26.85598295 7.71196591 26.59092637 11.95882614 26 16 C23.5625 19.0625 23.5625 19.0625 21 21 C20.67 21.33 20.34 21.66 20 22 C18.14712498 22.07226502 16.29166122 22.0838122 14.4375 22.0625 C13.42558594 22.05347656 12.41367188 22.04445312 11.37109375 22.03515625 C10.19740234 22.01775391 10.19740234 22.01775391 9 22 C9 25.3 9 28.6 9 32 C6.03 32 3.06 32 0 32 C0 21.44 0 10.88 0 0 Z M9 7 C9 9.64 9 12.28 9 15 C13.25731568 15.40749675 13.25731568 15.40749675 16.875 13.5 C17.24625 13.005 17.6175 12.51 18 12 C17.51294288 9.93597032 17.51294288 9.93597032 16 8 C12.43793339 7.18129815 12.43793339 7.18129815 9 7 Z " fill="#E5E3E3" transform="translate(98,172)"/>
<path d="M0 0 C2.05078125 0.03255208 4.1015625 0.06510417 6.15234375 0.09765625 C6.48234375 5.04765625 6.81234375 9.99765625 7.15234375 15.09765625 C7.79171875 14.12828125 8.43109375 13.15890625 9.08984375 12.16015625 C11.47788423 9.22686953 13.22624801 8.60595077 16.96484375 8.22265625 C18.35962952 8.15439594 19.75590192 8.10374096 21.15234375 8.09765625 C21.15234375 12.09765625 21.15234375 12.09765625 19.8046875 13.66015625 C18.65992818 14.61977227 17.51409054 15.57810337 16.3671875 16.53515625 C14.93603906 18.018832 14.93603906 18.018832 15.27734375 19.99609375 C16.31680104 22.49264743 17.65352826 24.51540645 19.21484375 26.72265625 C22.15234375 30.8835386 22.15234375 30.8835386 22.15234375 33.09765625 C19.0998786 33.39116251 16.19556526 33.52939356 13.15234375 33.09765625 C10.77734375 30.78515625 10.77734375 30.78515625 9.15234375 28.09765625 C8.17003877 27.08026895 7.17764778 26.07169508 6.15234375 25.09765625 C6.15234375 27.73765625 6.15234375 30.37765625 6.15234375 33.09765625 C0 33.1953125 0 33.1953125 -1.84765625 33.09765625 C-3.75615573 31.18915677 -2.97825258 27.78286851 -2.98046875 25.25390625 C-2.98142548 24.56961548 -2.9823822 23.88532471 -2.98336792 23.18029785 C-2.98404955 21.73103748 -2.98219648 20.28177407 -2.97802734 18.83251953 C-2.97267877 16.60702697 -2.97797285 14.38173624 -2.984375 12.15625 C-2.98371422 10.75130164 -2.98243305 9.3463534 -2.98046875 7.94140625 C-2.97934082 6.65427734 -2.97821289 5.36714844 -2.97705078 4.04101562 C-2.80592131 0.14830451 -2.80592131 0.14830451 0 0 Z " fill="#E1DFDF" transform="translate(183.84765625,131.90234375)"/>
<path d="M0 0 C2 1.625 2 1.625 3 3.625 C3.15123831 5.1445764 3.24881693 6.66972502 3.31640625 8.1953125 C3.35830078 9.09121094 3.40019531 9.98710937 3.44335938 10.91015625 C3.48267578 11.84730469 3.52199219 12.78445312 3.5625 13.75 C3.60568359 14.69488281 3.64886719 15.63976562 3.69335938 16.61328125 C3.79959072 18.95037092 3.90163176 21.2875683 4 23.625 C0.22779212 24.48433044 -2.22620796 24.44095503 -6 23.625 C-6.66 23.955 -7.32 24.285 -8 24.625 C-12.33327174 25.11555907 -14.32000344 25.10244439 -17.9375 22.5625 C-20.52001338 18.88437488 -20.72125695 17.03268137 -20 12.625 C-18.25954148 9.69786522 -16.76785867 8.83561954 -13.5078125 7.94140625 C-11.01090633 7.42858558 -8.52227424 6.99082603 -6 6.625 C-10.15176264 6.49918702 -10.15176264 6.49918702 -14.1875 7.3125 C-15.0846875 7.4671875 -15.0846875 7.4671875 -16 7.625 C-17.75 6.1875 -17.75 6.1875 -19 4.625 C-18.04254012 2.01374578 -17.34378312 0.83335341 -14.9375 -0.625 C-9.72530023 -1.95577441 -4.94726634 -2.26749707 0 0 Z M-11 13.625 C-11 14.945 -11 16.265 -11 17.625 C-9.05925139 17.34882467 -9.05925139 17.34882467 -7 16.625 C-6.34 15.635 -5.68 14.645 -5 13.625 C-6.98 13.625 -8.96 13.625 -11 13.625 Z " fill="#E2E0DF" transform="translate(155,141.375)"/>
<path d="M0 0 C3.84694112 7.02484899 2.51640237 15.97309244 1.4375 23.625 C-4.3125 23.75 -4.3125 23.75 -6.5625 22.625 C-7.2225 22.955 -7.8825 23.285 -8.5625 23.625 C-12.81990306 24.12635441 -16.37943041 24.27287144 -20.1875 22.1875 C-22.01096589 18.78922267 -21.77773792 16.44002267 -21.19140625 12.6875 C-20.5625 10.625 -20.5625 10.625 -18.5 8.5625 C-17.860625 8.253125 -17.22125 7.94375 -16.5625 7.625 C-17.8825 6.305 -19.2025 4.985 -20.5625 3.625 C-19.5625 0.625 -19.5625 0.625 -16.625 -1.125 C-11.11496225 -3.27664697 -5.18202895 -2.7806009 0 0 Z M-13.5625 4.625 C-14.5525 6.11 -14.5525 6.11 -15.5625 7.625 C-12.9225 7.625 -10.2825 7.625 -7.5625 7.625 C-7.5625 6.635 -7.5625 5.645 -7.5625 4.625 C-10.47884129 4.3747843 -10.47884129 4.3747843 -13.5625 4.625 Z M-11.5625 13.625 C-11.5625 14.945 -11.5625 16.265 -11.5625 17.625 C-10.2425 17.295 -8.9225 16.965 -7.5625 16.625 C-7.5625 15.635 -7.5625 14.645 -7.5625 13.625 C-8.8825 13.625 -10.2025 13.625 -11.5625 13.625 Z " fill="#F1EFEF" transform="translate(161.5625,180.375)"/>
<path d="M0 0 C3.60454612 2.53956659 4.45570327 4.76698833 5.75 8.9375 C5.9375 11.875 5.9375 11.875 5.75 13.9375 C2.98547967 15.31976016 0.7038637 15.03275387 -2.375 15 C-3.47070312 14.99097656 -4.56640625 14.98195312 -5.6953125 14.97265625 C-6.53835937 14.96105469 -7.38140625 14.94945312 -8.25 14.9375 C-8.25 15.5975 -8.25 16.2575 -8.25 16.9375 C-7.64671875 16.84210938 -7.0434375 16.74671875 -6.421875 16.6484375 C-5.22304687 16.48214844 -5.22304687 16.48214844 -4 16.3125 C-2.81664062 16.13847656 -2.81664062 16.13847656 -1.609375 15.9609375 C1.07152459 15.93430605 2.47694089 16.57157916 4.75 17.9375 C4.6875 19.75 4.6875 19.75 3.75 21.9375 C-0.9732596 24.79113601 -4.64954421 25.41870182 -10.09765625 24.58984375 C-13.69561123 23.49935649 -15.63770183 21.61510562 -18.25 18.9375 C-20.12968188 15.17813624 -19.90815796 11.02051699 -19.25 6.9375 C-14.86742287 -0.80135455 -8.50762562 -2.78133914 0 0 Z M-9.25 5.9375 C-9.58 6.9275 -9.91 7.9175 -10.25 8.9375 C-8.27 8.9375 -6.29 8.9375 -4.25 8.9375 C-4.25 7.9475 -4.25 6.9575 -4.25 5.9375 C-5.9 5.9375 -7.55 5.9375 -9.25 5.9375 Z " fill="#DCDADA" transform="translate(212.25,179.0625)"/>
<path d="M0 0 C3.00912808 2.06877556 4.59891936 3.50018437 5.5546875 7.07421875 C5.875 9.25 5.875 9.25 6 13 C4.05909174 14.94090826 0.52706098 14.39919435 -2.0625 14.5625 C-3.99802734 14.68818359 -3.99802734 14.68818359 -5.97265625 14.81640625 C-6.97167969 14.87699219 -7.97070312 14.93757812 -9 15 C-8.67 15.99 -8.34 16.98 -8 18 C-7.06027344 17.65775391 -7.06027344 17.65775391 -6.1015625 17.30859375 C-5.28429687 17.02113281 -4.46703125 16.73367187 -3.625 16.4375 C-2.40683594 16.00244141 -2.40683594 16.00244141 -1.1640625 15.55859375 C1 15 1 15 3 16 C3 16.66 3 17.32 3 18 C3.66 18 4.32 18 5 18 C4.875 19.8125 4.875 19.8125 4 22 C-0.7572287 25.24883912 -4.43735067 25.52977613 -10 25 C-13.02764021 23.72166302 -14.61952082 22.41983909 -16.8125 20 C-18.64848337 15.36172623 -18.66558665 10.91794577 -18 6 C-16.24166367 2.80894518 -14.85125522 1.53507471 -11.8125 -0.375 C-7.68919042 -1.29129102 -4.07473703 -1.12202904 0 0 Z M-8 6 C-8.33 6.66 -8.66 7.32 -9 8 C-7.02 8 -5.04 8 -3 8 C-3.33 7.34 -3.66 6.68 -4 6 C-5.32 6 -6.64 6 -8 6 Z " fill="#E9E4E8" transform="translate(224,141)"/>
<path d="M0 0 C3.0625 1.3125 3.0625 1.3125 5 3 C5.33 3.99 5.66 4.98 6 6 C4.25 8.0625 4.25 8.0625 2 10 C-0.25 9.75 -0.25 9.75 -2 9 C-2 8.34 -2 7.68 -2 7 C-5.79547921 7.96776098 -5.79547921 7.96776098 -9 10 C-9.25005386 12.95817107 -9.25005386 12.95817107 -9 16 C-7.10244856 18.34973818 -7.10244856 18.34973818 -3.875 18.125 C-2.92625 18.08375 -1.9775 18.0425 -1 18 C-1 17.34 -1 16.68 -1 16 C1.96175123 16.61277612 3.38058783 17.25372522 6 19 C5.875 20.8125 5.875 20.8125 5 23 C0.26316014 26.3157879 -4.4008758 26.87298173 -10 26 C-14.10626973 24.17499123 -16.17508229 22.28068781 -18 18.25 C-19.39334292 13.79627888 -19.00971503 10.19886891 -17 6 C-11.75501473 -0.16285769 -7.80546087 -0.69954602 0 0 Z " fill="#E8E7E6" transform="translate(186,178)"/>
<path d="M0 0 C3.3 0 6.6 0 10 0 C13.64798536 6.96433569 15.26912985 12.19523441 15 20 C14.01 20.33 13.02 20.66 12 21 C11.67 20.01 11.34 19.02 11 18 C10.01 17.67 9.02 17.34 8 17 C8 22.28 8 27.56 8 33 C5.36 33 2.72 33 0 33 C0 22.11 0 11.22 0 0 Z " fill="#F0EEEE" transform="translate(98,133)"/>
<path d="M0 0 C2.33294775 -0.04241723 4.66702567 -0.04092937 7 0 C8 1 8 1 8.0625 3.5625 C8.041875 4.366875 8.02125 5.17125 8 6 C9.65 6 11.3 6 13 6 C13 7.98 13 9.96 13 12 C11.35 12 9.7 12 8 12 C8 15.96 8 19.92 8 24 C9.65 23.67 11.3 23.34 13 23 C13.66 24.65 14.32 26.3 15 28 C12.45687431 30.44140066 11.06051786 30.99243527 7.5 31.4375 C4 31 4 31 1.625 29.1875 C-1.16419544 25.43281383 -1.11129725 22.35064382 -1.0625 17.8125 C-1.05347656 16.72582031 -1.04445312 15.63914063 -1.03515625 14.51953125 C-1.02355469 13.68808594 -1.01195312 12.85664063 -1 12 C-1.99 11.67 -2.98 11.34 -4 11 C-4 9.35 -4 7.7 -4 6 C-3.34 5.67 -2.68 5.34 -2 5 C-1.27840576 3.35636866 -0.60648579 1.68949614 0 0 Z " fill="#ECEAEA" transform="translate(234,135)"/>
<path d="M0 0 C0.1875 2.875 0.1875 2.875 0 6 C-3 8 -3 8 -5.140625 8.6484375 C-7.40968965 9.96851674 -7.40968965 9.96851674 -7.609375 13.4765625 C-7.67581781 14.858573 -7.7219252 16.2416781 -7.75 17.625 C-7.77964844 18.33140625 -7.80929688 19.0378125 -7.83984375 19.765625 C-7.91055357 21.50980047 -7.95754035 23.25490827 -8 25 C-14.75 25.125 -14.75 25.125 -17 24 C-17 16.08 -17 8.16 -17 0 C-14.03 0 -11.06 0 -8 0 C-4.29847322 -0.92538169 -3.36541838 -1.08174162 0 0 Z " fill="#E7E5E5" transform="translate(180,141)"/>
<path d="M0 0 C1.98 0 3.96 0 6 0 C7.00109515 3.31070838 7.10356134 6.30084769 7.0625 9.75 C7.05347656 10.73484375 7.04445313 11.7196875 7.03515625 12.734375 C7.02355469 13.48203125 7.01195313 14.2296875 7 15 C7.7425 15 8.485 15 9.25 15 C11.5 15 13.75 15 16 15 C16.66 16.65 17.32 18.3 18 20 C14.52674819 21.1577506 11.63932552 21.06866652 8 21 C8 24.3 8 27.6 8 31 C5.36 31 2.72 31 0 31 C0 20.77 0 10.54 0 0 Z " fill="#F1EFF0" transform="translate(99,173)"/>
<path d="M0 0 C2.64 0 5.28 0 8 0 C8 11.22 8 22.44 8 34 C5.36 34 2.72 34 0 34 C0 22.78 0 11.56 0 0 Z " fill="#F7F6F6" transform="translate(128,170)"/>
<path d="M0 0 C7.84984026 -0.60383387 7.84984026 -0.60383387 11.5 1.3125 C15.29591605 8.11351625 14.09584055 16.5726363 13 24 C11.02 23.67 9.04 23.34 7 23 C6.86722656 22.37351563 6.73445312 21.74703125 6.59765625 21.1015625 C6.33275391 19.87566406 6.33275391 19.87566406 6.0625 18.625 C5.88847656 17.81289062 5.71445313 17.00078125 5.53515625 16.1640625 C5.07669307 13.970537 5.07669307 13.970537 4 12 C4.60760482 9.6505947 5.27129528 7.31470912 6 5 C3.36 5 0.72 5 -2 5 C-2 4.34 -2 3.68 -2 3 C-1.01 3 -0.02 3 1 3 C0.67 2.01 0.34 1.02 0 0 Z " fill="#F3F2F2" transform="translate(150,179)"/>
<path d="M0 0 C3.60454612 2.53956659 4.45570327 4.76698833 5.75 8.9375 C5.9375 11.875 5.9375 11.875 5.75 13.9375 C2.53548731 15.54475635 -0.68612536 14.99498185 -4.25 14.9375 C-4.25 14.2775 -4.25 13.6175 -4.25 12.9375 C-2.93 12.6075 -1.61 12.2775 -0.25 11.9375 C-0.25 8.6375 -0.25 5.3375 -0.25 1.9375 C-1.24 1.9375 -2.23 1.9375 -3.25 1.9375 C-3.58 3.2575 -3.91 4.5775 -4.25 5.9375 C-3.59 5.9375 -2.93 5.9375 -2.25 5.9375 C-2.58 7.2575 -2.91 8.5775 -3.25 9.9375 C-5.89 9.9375 -8.53 9.9375 -11.25 9.9375 C-12.18423645 6.92718256 -12.29449911 6.07099732 -11.25 2.9375 C-12.24 3.5975 -13.23 4.2575 -14.25 4.9375 C-15.24 4.6075 -16.23 4.2775 -17.25 3.9375 C-12.14005851 -1.52485125 -7.18491585 -2.3489148 0 0 Z M-9.25 5.9375 C-9.58 6.9275 -9.91 7.9175 -10.25 8.9375 C-8.27 8.9375 -6.29 8.9375 -4.25 8.9375 C-4.25 7.9475 -4.25 6.9575 -4.25 5.9375 C-5.9 5.9375 -7.55 5.9375 -9.25 5.9375 Z " fill="#F5F3F3" transform="translate(212.25,179.0625)"/>
<path d="M0 0 C0.99 0.66 1.98 1.32 3 2 C6.12521833 2.16699232 6.12521833 2.16699232 9 2 C9 1.34 9 0.68 9 0 C11.96175123 0.61277612 13.38058783 1.25372522 16 3 C15.875 4.8125 15.875 4.8125 15 7 C10.3086325 10.28395725 5.55918799 10.94139547 0 10 C-2.34831738 8.89067216 -3.97091499 7.66489026 -6 6 C-5.01 5.34 -4.02 4.68 -3 4 C-3 4.66 -3 5.32 -3 6 C-2.01 6 -1.02 6 0 6 C-0.33 5.01 -0.66 4.02 -1 3 C-0.67 2.01 -0.34 1.02 0 0 Z " fill="#F0EEEE" transform="translate(176,194)"/>
<path d="M0 0 C0 0.66 0 1.32 0 2 C0.66 2 1.32 2 2 2 C1.875 3.8125 1.875 3.8125 1 6 C-3.7572287 9.24883912 -7.43735067 9.52977613 -13 9 C-16 7.75 -16 7.75 -18 6 C-18 4.68 -18 3.36 -18 2 C-16.0085944 1.61866701 -14.00720923 1.28674418 -12 1 C-11.67 1.33 -11.34 1.66 -11 2 C-9.9275 1.484375 -8.855 0.96875 -7.75 0.4375 C-4.80304013 -0.84170773 -3.06798204 -1.3499121 0 0 Z " fill="#E0DCDD" transform="translate(227,157)"/>
<path d="M0 0 C2.64 0 5.28 0 8 0 C8 11.22 8 22.44 8 34 C5.36 34 2.72 34 0 34 C0 22.78 0 11.56 0 0 Z M1 2 C1 12.23 1 22.46 1 33 C2.98 33 4.96 33 7 33 C7 28.38 7 23.76 7 19 C6.34 19 5.68 19 5 19 C5 17.68 5 16.36 5 15 C5.66 15 6.32 15 7 15 C7 10.71 7 6.42 7 2 C5.02 2 3.04 2 1 2 Z " fill="#DFDCDD" transform="translate(128,170)"/>
<path d="M0 0 C1.08667969 0.02707031 2.17335937 0.05414063 3.29296875 0.08203125 C4.54013672 0.13423828 4.54013672 0.13423828 5.8125 0.1875 C6.1425 0.8475 6.4725 1.5075 6.8125 2.1875 C6.4825 2.8475 6.1525 3.5075 5.8125 4.1875 C3.1725 4.1875 0.5325 4.1875 -2.1875 4.1875 C-2.1875 5.8375 -2.1875 7.4875 -2.1875 9.1875 C-4.8541419 10.52082095 -6.35430303 9.85852033 -9.1875 9.1875 C-9.55113636 3.73295455 -9.55113636 3.73295455 -8.0625 1.5 C-5.35396601 -0.39597379 -3.26391345 -0.10528753 0 0 Z " fill="#F0EEEF" transform="translate(145.1875,149.8125)"/>
<path d="M0 0 C2.97 0.33 5.94 0.66 9 1 C9.94296589 4.66708957 10.11421833 7.35346727 9 11 C6.47524538 12.26237731 4.68799534 12.09856404 1.875 12.0625 C0.96492187 12.05347656 0.05484375 12.04445312 -0.8828125 12.03515625 C-1.58148438 12.02355469 -2.28015625 12.01195312 -3 12 C-2.67 10.68 -2.34 9.36 -2 8 C0.97 8 3.94 8 7 8 C5.18777466 5.9375006 5.18777466 5.9375006 3 4 C2.01 4 1.02 4 0 4 C0 2.68 0 1.36 0 0 Z " fill="#F6F4F5" transform="translate(217,142)"/>
<path d="M0 0 C3 1 3 1 4 3 C4.6318658 8.10005967 4.86148903 11.79391536 1.8125 16.0625 C-0.95175715 17.96676604 -2.68786459 18.71610268 -6 19 C-5.34 18.34 -4.68 17.68 -4 17 C-4.66 16.01 -5.32 15.02 -6 14 C-6.99 14.33 -7.98 14.66 -9 15 C-9 14.34 -9 13.68 -9 13 C-10.65 13 -12.3 13 -14 13 C-14 10.36 -14 7.72 -14 5 C-13.67 5 -13.34 5 -13 5 C-13 7.31 -13 9.62 -13 12 C-11.906875 11.67 -10.81375 11.34 -9.6875 11 C-6 10 -6 10 -3 10 C-3.33 11.32 -3.66 12.64 -4 14 C-3.01 14 -2.02 14 -1 14 C-0.67 13.34 -0.34 12.68 0 12 C0.99 12 1.98 12 3 12 C3 10.02 3 8.04 3 6 C2.01 6.33 1.02 6.66 0 7 C-0.33 6.34 -0.66 5.68 -1 5 C-0.01 4.01 0.98 3.02 2 2 C1.34 2 0.68 2 0 2 C0 1.34 0 0.68 0 0 Z " fill="#C8C6C5" transform="translate(120,175)"/>
<path d="M0 0 C2.31 0.33 4.62 0.66 7 1 C7 1.99 7 2.98 7 4 C8.65 4.33 10.3 4.66 12 5 C12 6.32 12 7.64 12 9 C11.01 9.33 10.02 9.66 9 10 C9 11.32 9 12.64 9 14 C8.34 14 7.68 14 7 14 C6.67 14.66 6.34 15.32 6 16 C4.875 14.4375 4.875 14.4375 4 12 C4.875 8.25 4.875 8.25 6 5 C3.36 5 0.72 5 -2 5 C-2 4.34 -2 3.68 -2 3 C-1.01 3 -0.02 3 1 3 C0.67 2.01 0.34 1.02 0 0 Z " fill="#F6F5F4" transform="translate(150,179)"/>
<path d="M0 0 C0.33 0.66 0.66 1.32 1 2 C3.02463255 2.65213292 3.02463255 2.65213292 5 3 C5.54372951 6.05847848 6 8.88772805 6 12 C8.97 12.495 8.97 12.495 12 13 C12 13.33 12 13.66 12 14 C6.25 14.125 6.25 14.125 4 13 C1.6599583 13.28241883 -0.67504723 13.61250787 -3 14 C-1.68 13.67 -0.36 13.34 1 13 C1 12.01 1 11.02 1 10 C-0.65 9.67 -2.3 9.34 -4 9 C-4 7.68 -4 6.36 -4 5 C-3.34 5 -2.68 5 -2 5 C-2.33 4.01 -2.66 3.02 -3 2 C-2.01 1.34 -1.02 0.68 0 0 Z M-1 4 C-1 5.32 -1 6.64 -1 8 C0.32 7.67 1.64 7.34 3 7 C3 6.01 3 5.02 3 4 C1.68 4 0.36 4 -1 4 Z " fill="#D3CDCD" transform="translate(151,190)"/>
<path d="M0 0 C-1.98 0.99 -1.98 0.99 -4 2 C-4 2.66 -4 3.32 -4 4 C-4.99 4 -5.98 4 -7 4 C-7 4.66 -7 5.32 -7 6 C-4.36 6 -1.72 6 1 6 C0.67 7.98 0.34 9.96 0 12 C-5.02705917 11.87952582 -8.09872551 11.75412763 -12.0625 8.4375 C-12.701875 7.633125 -13.34125 6.82875 -14 6 C-13 3 -13 3 -9.8125 1.3125 C-6.4652075 -0.01535157 -3.61508773 -0.26451861 0 0 Z M-7 7 C-7.99 8.485 -7.99 8.485 -9 10 C-6.36 10 -3.72 10 -1 10 C-1 9.01 -1 8.02 -1 7 C-3.91634129 6.7497843 -3.91634129 6.7497843 -7 7 Z " fill="#D0CECE" transform="translate(155,178)"/>
<path d="M0 0 C0.79664063 0.07863281 1.59328125 0.15726563 2.4140625 0.23828125 C3.06117188 0.38652344 3.70828125 0.53476563 4.375 0.6875 C4.705 1.3475 5.035 2.0075 5.375 2.6875 C2.735 2.3575 0.095 2.0275 -2.625 1.6875 C-2.625 3.0075 -2.625 4.3275 -2.625 5.6875 C-2.026875 5.460625 -1.42875 5.23375 -0.8125 5 C0.2703125 4.8453125 0.2703125 4.8453125 1.375 4.6875 C3.125 6 3.125 6 4.375 7.6875 C4.375 8.3475 4.375 9.0075 4.375 9.6875 C1.405 9.6875 -1.565 9.6875 -4.625 9.6875 C-5.285 8.0375 -5.945 6.3875 -6.625 4.6875 C-8.275 4.6875 -9.925 4.6875 -11.625 4.6875 C-7.85273428 0.65507802 -5.51670711 -0.60198596 0 0 Z M-3.625 6.6875 C-3.955 7.3475 -4.285 8.0075 -4.625 8.6875 C-2.645 8.6875 -0.665 8.6875 1.375 8.6875 C1.045 8.0275 0.715 7.3675 0.375 6.6875 C-0.945 6.6875 -2.265 6.6875 -3.625 6.6875 Z " fill="#D8D6D5" transform="translate(219.625,140.3125)"/>
<path d="M0 0 C2.33294775 -0.04241723 4.66702567 -0.04092937 7 0 C8 1 8 1 8.0625 3.5625 C8.041875 4.366875 8.02125 5.17125 8 6 C9.65 6 11.3 6 13 6 C13 7.98 13 9.96 13 12 C11.35 12 9.7 12 8 12 C8 15.63 8 19.26 8 23 C7.67 23 7.34 23 7 23 C7 19.04 7 15.08 7 11 C8.65 11 10.3 11 12 11 C12 10.34 12 9.68 12 9 C11.071875 8.7834375 11.071875 8.7834375 10.125 8.5625 C8 8 8 8 6 7 C5.375 4.9375 5.375 4.9375 5 3 C3.68 2.67 2.36 2.34 1 2 C1 3.32 1 4.64 1 6 C0.01 5.67 -0.98 5.34 -2 5 C-1.34 3.35 -0.68 1.7 0 0 Z " fill="#ACABAA" transform="translate(234,135)"/>
<path d="M0 0 C0.02687279 1.81242052 0.04633715 3.62495233 0.0625 5.4375 C0.07410156 6.44683594 0.08570313 7.45617187 0.09765625 8.49609375 C0 11 0 11 -1 12 C-2.65 12 -4.3 12 -6 12 C-6 8.7 -6 5.4 -6 2 C-2 0 -2 0 0 0 Z " fill="#F8F8F8" transform="translate(170,153)"/>
<path d="M0 0 C0 3.96 0 7.92 0 12 C-2.97 11.505 -2.97 11.505 -6 11 C-7 6.25 -7 6.25 -7 4 C-6.01 4 -5.02 4 -4 4 C-3.67 3.01 -3.34 2.02 -3 1 C-1 0 -1 0 0 0 Z " fill="#EEECEB" transform="translate(176,188)"/>
<path d="M0 0 C0.66 0 1.32 0 2 0 C2 0.66 2 1.32 2 2 C2.99 2.33 3.98 2.66 5 3 C5.33 5.64 5.66 8.28 6 11 C2.78548731 12.60725635 -0.43612536 12.05748185 -4 12 C-4 11.34 -4 10.68 -4 10 C-2.68 9.67 -1.36 9.34 0 9 C0 6.03 0 3.06 0 0 Z " fill="#CAC9C6" transform="translate(212,182)"/>
<path d="M0 0 C0.33 0.61875 0.66 1.2375 1 1.875 C3.95608588 5.01584125 6.80920859 5.17558202 11 6 C10.01 6.495 10.01 6.495 9 7 C9 7.99 9 8.98 9 10 C9.99 10.66 10.98 11.32 12 12 C7.70892835 12.4206933 5.64865463 12.45543836 2.0625 9.9375 C-0.45543836 6.35134537 -0.4206933 4.29107165 0 0 Z " fill="#E4E2E3" transform="translate(135,154)"/>
<path d="M0 0 C0.99 0 1.98 0 3 0 C4.125 7.625 4.125 7.625 3 11 C0.75 11.6875 0.75 11.6875 -2 12 C-4.3125 10.5625 -4.3125 10.5625 -6 9 C-5.030625 8.731875 -4.06125 8.46375 -3.0625 8.1875 C-1.5465625 7.5996875 -1.5465625 7.5996875 0 7 C0.33 6.01 0.66 5.02 1 4 C0.34 4 -0.32 4 -1 4 C-0.67 2.68 -0.34 1.36 0 0 Z " fill="#F6F5F5" transform="translate(209,181)"/>
<path d="M0 0 C0 0.66 0 1.32 0 2 C0.66 2.33 1.32 2.66 2 3 C0 5 0 5 -2.1640625 5.1953125 C-3.38222656 5.16050781 -3.38222656 5.16050781 -4.625 5.125 C-5.44226563 5.10695312 -6.25953125 5.08890625 -7.1015625 5.0703125 C-7.72804687 5.04710937 -8.35453125 5.02390625 -9 5 C-9 5.66 -9 6.32 -9 7 C-9.99 7 -10.98 7 -12 7 C-11.67 5.68 -11.34 4.36 -11 3 C-10.34 3 -9.68 3 -9 3 C-9 2.34 -9 1.68 -9 1 C-5.8035914 -0.06546953 -3.34252724 -0.07427838 0 0 Z " fill="#F7F5F5" transform="translate(150,141)"/>
<path d="M0 0 C0.94875 0.350625 1.8975 0.70125 2.875 1.0625 C2.8125 2.875 2.8125 2.875 1.875 5.0625 C-2.65329116 7.54862064 -5.89341536 8.44529888 -11.125 8.0625 C-10.485625 7.77375 -9.84625 7.485 -9.1875 7.1875 C-6.97293921 6.23426549 -6.97293921 6.23426549 -6.125 4.0625 C-4.475 4.0625 -2.825 4.0625 -1.125 4.0625 C-1.125 3.4025 -1.125 2.7425 -1.125 2.0625 C-2.445 1.4025 -3.765 0.7425 -5.125 0.0625 C-3.125 -0.9375 -3.125 -0.9375 0 0 Z " fill="#C2C1C1" transform="translate(214.125,195.9375)"/>
<path d="M0 0 C0 1.98 0 3.96 0 6 C-0.99 6 -1.98 6 -3 6 C-3.33 6.99 -3.66 7.98 -4 9 C-4.99 8.67 -5.98 8.34 -7 8 C-7 5.69 -7 3.38 -7 1 C-4 0 -4 0 0 0 Z " fill="#F7F7F6" transform="translate(123,181)"/>
<path d="M0 0 C7.75 -0.125 7.75 -0.125 10 1 C10 1.66 10 2.32 10 3 C8.35 3 6.7 3 5 3 C4.67 3.99 4.34 4.98 4 6 C1.03 5.505 1.03 5.505 -2 5 C-1.34 3.35 -0.68 1.7 0 0 Z " fill="#EBEBE9" transform="translate(203,197)"/>
<path d="M0 0 C3 2 3 2 3.51171875 3.9453125 C3.67447917 5.96354167 3.83723958 7.98177083 4 10 C-0.7517398 9.56802365 -2.92000054 8.67230705 -6 5 C-5.01 4.67 -4.02 4.34 -3 4 C-3 4.66 -3 5.32 -3 6 C-2.01 6 -1.02 6 0 6 C-0.33 5.01 -0.66 4.02 -1 3 C-0.67 2.01 -0.34 1.02 0 0 Z " fill="#E4E3E1" transform="translate(176,194)"/>
<path d="M0 0 C0.99 0.33 1.98 0.66 3 1 C3.02686553 2.97909398 3.04633375 4.95828971 3.0625 6.9375 C3.07410156 8.03964844 3.08570313 9.14179688 3.09765625 10.27734375 C3 13 3 13 2 14 C1.76712992 15.68183948 1.58735834 17.3712416 1.4375 19.0625 C1.35371094 19.98160156 1.26992187 20.90070313 1.18359375 21.84765625 C1.12300781 22.55792969 1.06242188 23.26820313 1 24 C0.67 24 0.34 24 0 24 C0 16.08 0 8.16 0 0 Z " fill="#9C9B9B" transform="translate(163,141)"/>
<path d="M0 0 C0 0.66 0 1.32 0 2 C0.66 2 1.32 2 2 2 C1.67 2.99 1.34 3.98 1 5 C-0.32 5 -1.64 5 -3 5 C-3.33 5.66 -3.66 6.32 -4 7 C-5.65 7 -7.3 7 -9 7 C-8.34 6.67 -7.68 6.34 -7 6 C-7 4.35 -7 2.7 -7 1 C-2.25 0 -2.25 0 0 0 Z " fill="#F5F3F3" transform="translate(151,158)"/>
<path d="M0 0 C1.1446875 0.2784375 1.1446875 0.2784375 2.3125 0.5625 C5.08967375 1.22819173 5.08967375 1.22819173 8 0 C8.66 1.65 9.32 3.3 10 5 C8.35 5 6.7 5 5 5 C5 4.34 5 3.68 5 3 C4.34 3 3.68 3 3 3 C2.67 3.66 2.34 4.32 2 5 C0.35 4.67 -1.3 4.34 -3 4 C-2.01 2.68 -1.02 1.36 0 0 Z " fill="#F8F6F6" transform="translate(107,188)"/>
<path d="M0 0 C-1.5625 2.5 -1.5625 2.5 -4 5 C-7.75 5.3125 -7.75 5.3125 -11 5 C-8.56727664 0.25618945 -8.56727664 0.25618945 -6.0625 -0.875 C-3.82087733 -1.01085592 -2.13005882 -0.68466176 0 0 Z " fill="#F6F5F6" transform="translate(226,160)"/>
<path d="M0 0 C2.96175123 0.61277612 4.38058783 1.25372522 7 3 C6.75 4.875 6.75 4.875 6 7 C3.9375 8.25 3.9375 8.25 2 9 C2.33 7.68 2.66 6.36 3 5 C0.525 4.01 0.525 4.01 -2 3 C-1.34 2.67 -0.68 2.34 0 2 C0 1.34 0 0.68 0 0 Z " fill="#D4D2D3" transform="translate(185,194)"/>
<path d="M0 0 C2.1875 0.3125 2.1875 0.3125 4 1 C4 1.66 4 2.32 4 3 C4.66 3 5.32 3 6 3 C5.875 4.875 5.875 4.875 5 7 C1.9375 8.25 1.9375 8.25 -1 9 C0 6 0 6 2 4 C0.35 3.67 -1.3 3.34 -3 3 C-1.75 1.4375 -1.75 1.4375 0 0 Z " fill="#BEBCBD" transform="translate(223,156)"/>
<path d="M0 0 C2.4375 0.8125 2.4375 0.8125 5 2 C5.33 2.99 5.66 3.98 6 5 C4.25 7.0625 4.25 7.0625 2 9 C-0.25 8.75 -0.25 8.75 -2 8 C-1.34 7.34 -0.68 6.68 0 6 C0.16681109 2.91652174 0.16681109 2.91652174 0 0 Z " fill="#CCCACA" transform="translate(186,179)"/>
<path d="M0 0 C2.57876935 0.34848234 4.50123403 0.63551717 6.625 2.1875 C8.50830021 4.6700321 8.50608189 6.60339216 8.6875 9.6875 C8.78611328 11.17830078 8.78611328 11.17830078 8.88671875 12.69921875 C8.92410156 13.45847656 8.96148437 14.21773437 9 15 C8.34 15 7.68 15 7 15 C6.34 13.02 5.68 11.04 5 9 C5.66 9 6.32 9 7 9 C7 7.68 7 6.36 7 5 C5.35 4.67 3.7 4.34 2 4 C2 3.01 2 2.02 2 1 C1.34 0.67 0.68 0.34 0 0 Z " fill="#D7D5D4" transform="translate(155,179)"/>
<path d="M0 0 C0.66 0.33 1.32 0.66 2 1 C2.44921875 2.8125 2.44921875 2.8125 2.6875 5 C2.77386719 5.721875 2.86023438 6.44375 2.94921875 7.1875 C2.97435547 8.0846875 2.97435547 8.0846875 3 9 C2 10 2 10 -0.5625 10.0625 C-1.366875 10.041875 -2.17125 10.02125 -3 10 C-3 9.34 -3 8.68 -3 8 C-2.34 8 -1.68 8 -1 8 C-0.67 5.36 -0.34 2.72 0 0 Z " fill="#D6D4D5" transform="translate(227,145)"/>
<path d="M0 0 C0.99 0 1.98 0 3 0 C3 0.66 3 1.32 3 2 C4.65 2 6.3 2 8 2 C8.33 1.34 8.66 0.68 9 0 C9 0.99 9 1.98 9 3 C5.85069107 4.04976964 3.61185544 4.10131595 0.3125 4.0625 C-0.68136719 4.05347656 -1.67523438 4.04445312 -2.69921875 4.03515625 C-3.83810547 4.01775391 -3.83810547 4.01775391 -5 4 C-4.360625 3.71125 -3.72125 3.4225 -3.0625 3.125 C-0.84793921 2.17176549 -0.84793921 2.17176549 0 0 Z " fill="#D7D0D0" transform="translate(67,192)"/>
<path d="M0 0 C0.33 0 0.66 0 1 0 C1 2.31 1 4.62 1 7 C2.093125 6.67 3.18625 6.34 4.3125 6 C8 5 8 5 11 5 C10.25 6.9375 10.25 6.9375 9 9 C6.875 9.75 6.875 9.75 5 10 C5 9.34 5 8.68 5 8 C3.35 8 1.7 8 0 8 C0 5.36 0 2.72 0 0 Z " fill="#D3D1CC" transform="translate(106,180)"/>
<path d="M0 0 C0.66 0.33 1.32 0.66 2 1 C1.34 2.65 0.68 4.3 0 6 C-0.99 6 -1.98 6 -3 6 C-3 6.66 -3 7.32 -3 8 C-3.66 8 -4.32 8 -5 8 C-5.33 6.35 -5.66 4.7 -6 3 C-4.03533587 1.93224776 -2.03144641 0.93446535 0 0 Z " fill="#F9F8F9" transform="translate(201,181)"/>
<path d="M0 0 C0.12375 0.639375 0.2475 1.27875 0.375 1.9375 C0.58125 2.618125 0.7875 3.29875 1 4 C1.66 4.33 2.32 4.66 3 5 C2.34 5 1.68 5 1 5 C1.5259375 5.928125 1.5259375 5.928125 2.0625 6.875 C2.371875 7.57625 2.68125 8.2775 3 9 C2.67 9.66 2.34 10.32 2 11 C1.01 11 0.02 11 -1 11 C-1.02688151 9.35425434 -1.04634123 7.70838587 -1.0625 6.0625 C-1.07410156 5.14597656 -1.08570313 4.22945312 -1.09765625 3.28515625 C-1 1 -1 1 0 0 Z " fill="#F1EEEF" transform="translate(165,154)"/>
<path d="M0 0 C4 2 4 2 4.75 4.125 C4.8325 4.74375 4.915 5.3625 5 6 C4.01 6.33 3.02 6.66 2 7 C2 7.99 2 8.98 2 10 C1.34 10 0.68 10 0 10 C0 6.7 0 3.4 0 0 Z " fill="#F1EFF0" transform="translate(129,193)"/>
<path d="M0 0 C0 0.33 0 0.66 0 1 C-5.445 1.495 -5.445 1.495 -11 2 C-11 2.66 -11 3.32 -11 4 C-11.66 4 -12.32 4 -13 4 C-13.33 4.99 -13.66 5.98 -14 7 C-14.66 6.67 -15.32 6.34 -16 6 C-15.04254012 3.38874578 -14.34378312 2.20835341 -11.9375 0.75 C-7.92889271 -0.2734742 -4.1136049 -0.16131784 0 0 Z " fill="#CBC7C7" transform="translate(152,140)"/>
<path d="M0 0 C2.4294516 3.6441774 2.16179575 5.71241272 2 10 C5.96 10 9.92 10 14 10 C14 10.33 14 10.66 14 11 C9.71 11 5.42 11 1 11 C1 9.02 1 7.04 1 5 C0.34 5 -0.32 5 -1 5 C-0.67 3.35 -0.34 1.7 0 0 Z " fill="#797777" transform="translate(66,135)"/>
<path d="M0 0 C0.33 0.66 0.66 1.32 1 2 C1.99 2.33 2.98 2.66 4 3 C0.68929162 4.00109515 -2.30084769 4.10356134 -5.75 4.0625 C-6.73484375 4.05347656 -7.7196875 4.04445312 -8.734375 4.03515625 C-9.48203125 4.02355469 -10.2296875 4.01195312 -11 4 C-11 3.67 -11 3.34 -11 3 C-7.37 2.01 -3.74 1.02 0 0 Z " fill="#E8E6E5" transform="translate(62,192)"/>
<path d="M0 0 C3.5625 0.125 3.5625 0.125 5.5625 1.125 C5.2325 2.445 4.9025 3.765 4.5625 5.125 C1.9225 5.125 -0.7175 5.125 -3.4375 5.125 C-4 3.1875 -4 3.1875 -4.4375 1.125 C-3.4375 0.125 -3.4375 0.125 0 0 Z M-1.4375 1.125 C-1.7675 2.115 -2.0975 3.105 -2.4375 4.125 C-0.4575 4.125 1.5225 4.125 3.5625 4.125 C3.5625 3.135 3.5625 2.145 3.5625 1.125 C1.9125 1.125 0.2625 1.125 -1.4375 1.125 Z " fill="#C0BCBD" transform="translate(204.4375,183.875)"/>
<path d="M0 0 C5.2162083 -0.3129725 8.56575777 0.14941571 13 3 C13.33 3.99 13.66 4.98 14 6 C13.34 6 12.68 6 12 6 C12 5.34 12 4.68 12 4 C9.60280568 3.32041397 9.60280568 3.32041397 7 3 C6.34 3.66 5.68 4.32 5 5 C5 3.68 5 2.36 5 1 C3.35 1 1.7 1 0 1 C0 0.67 0 0.34 0 0 Z " fill="#C0BFBF" transform="translate(202,178)"/>
<path d="M0 0 C2.0625 0.4375 2.0625 0.4375 4 1 C4.1875 3.875 4.1875 3.875 4 7 C1 9 1 9 -2 9 C-2 8.34 -2 7.68 -2 7 C-0.68 7 0.64 7 2 7 C1.42655063 4.13275314 1.1385485 3.1385485 -1 1 C-0.67 0.67 -0.34 0.34 0 0 Z " fill="#9D9B9C" transform="translate(176,140)"/>
<path d="M0 0 C0.66 0.33 1.32 0.66 2 1 C2 1.66 2 2.32 2 3 C1.34 3 0.68 3 0 3 C-0.28875 3.5775 -0.5775 4.155 -0.875 4.75 C-1.91666667 6.83333333 -2.95833333 8.91666667 -4 11 C-3.91291331 9.54054712 -3.80473093 8.08234132 -3.6875 6.625 C-3.62949219 5.81289062 -3.57148438 5.00078125 -3.51171875 4.1640625 C-3 2 -3 2 0 0 Z " fill="#C0BFBF" transform="translate(144,189)"/>
<path d="M0 0 C0.91007813 0.00902344 1.82015625 0.01804688 2.7578125 0.02734375 C3.45648438 0.03894531 4.15515625 0.05054688 4.875 0.0625 C4.875 0.3925 4.875 0.7225 4.875 1.0625 C1.905 1.0625 -1.065 1.0625 -4.125 1.0625 C-4.455 3.3725 -4.785 5.6825 -5.125 8.0625 C-5.785 8.0625 -6.445 8.0625 -7.125 8.0625 C-7.125 5.7525 -7.125 3.4425 -7.125 1.0625 C-4.60024538 -0.19987731 -2.81299534 -0.03606404 0 0 Z " fill="#C8C8C4" transform="translate(181.125,177.9375)"/>
<path d="M0 0 C0 0.66 0 1.32 0 2 C-0.99 2.495 -0.99 2.495 -2 3 C-0.68 3.99 0.64 4.98 2 6 C1.01 6.66 0.02 7.32 -1 8 C-2.32 6.68 -3.64 5.36 -5 4 C-4.67 3.01 -4.34 2.02 -4 1 C-2 0 -2 0 0 0 Z " fill="#C8C5C5" transform="translate(146,180)"/>
<path d="M0 0 C2.32472205 2.85306797 3.7508258 5.54074837 5 9 C3.68 9 2.36 9 1 9 C-0.4783226 6.04335481 -0.06032783 3.25770263 0 0 Z " fill="#C8C5C6" transform="translate(135,154)"/>
<path d="M0 0 C2.0625 0.4375 2.0625 0.4375 4 1 C3.01 1 2.02 1 1 1 C1 1.66 1 2.32 1 3 C1.66 3 2.32 3 3 3 C3 3.66 3 4.32 3 5 C3.99 5 4.98 5 6 5 C6 5.66 6 6.32 6 7 C4.35 7 2.7 7 1 7 C0.34 5.02 -0.32 3.04 -1 1 C-0.67 0.67 -0.34 0.34 0 0 Z " fill="#E7E5E5" transform="translate(179,197)"/>
<path d="M0 0 C0.99 0 1.98 0 3 0 C3 1.98 3 3.96 3 6 C1.35 5.67 -0.3 5.34 -2 5 C-1.34 3.35 -0.68 1.7 0 0 Z " fill="#F5F4F3" transform="translate(173,194)"/>
<path d="M0 0 C0.86625 0.8353125 0.86625 0.8353125 1.75 1.6875 C1.75 2.3475 1.75 3.0075 1.75 3.6875 C-1.22 3.6875 -4.19 3.6875 -7.25 3.6875 C-7.25 3.3575 -7.25 3.0275 -7.25 2.6875 C-5.6 2.3575 -3.95 2.0275 -2.25 1.6875 C-3.57 1.0275 -4.89 0.3675 -6.25 -0.3125 C-3.46686179 -1.40587572 -2.65053646 -1.54614627 0 0 Z " fill="#B5B3B3" transform="translate(222.25,146.3125)"/>
<path d="M0 0 C2.97 0.495 2.97 0.495 6 1 C4.515 2.485 4.515 2.485 3 4 C3.33 4.66 3.66 5.32 4 6 C1.03 5.505 1.03 5.505 -2 5 C-1.34 3.35 -0.68 1.7 0 0 Z " fill="#F5F4F3" transform="translate(203,197)"/>
<path d="M0 0 C1.32 0.33 2.64 0.66 4 1 C4.33 2.32 4.66 3.64 5 5 C3.02 5.99 3.02 5.99 1 7 C0.11706286 4.35118859 0 2.74807818 0 0 Z " fill="#C1BFBD" transform="translate(244,158)"/>
<path d="M0 0 C0.33 0.66 0.66 1.32 1 2 C3.52733235 2.65555119 3.52733235 2.65555119 6 3 C6 3.99 6 4.98 6 6 C2.62496331 4.8141763 0.35277269 3.72426311 -2 1 C-1.34 0.67 -0.68 0.34 0 0 Z " fill="#C2C0BF" transform="translate(172,198)"/>
<path d="M0 0 C3.3 0 6.6 0 10 0 C9.67 0.99 9.34 1.98 9 3 C7.9275 2.979375 6.855 2.95875 5.75 2.9375 C2.85209576 2.9857984 0.71387859 3.13155885 -2 4 C-1.34 2.68 -0.68 1.36 0 0 Z " fill="#B8B0B7" transform="translate(141,145)"/>
<path d="M0 0 C0.33 0.66 0.66 1.32 1 2 C1.99 2 2.98 2 4 2 C3.67 3.32 3.34 4.64 3 6 C3 5.34 3 4.68 3 4 C1.35 4.33 -0.3 4.66 -2 5 C-2.33 4.01 -2.66 3.02 -3 2 C-2.01 1.34 -1.02 0.68 0 0 Z " fill="#B2B1B1" transform="translate(151,190)"/>
<path d="M0 0 C0.66 0.33 1.32 0.66 2 1 C1.75 2.875 1.75 2.875 1 5 C-1.0625 6.25 -1.0625 6.25 -3 7 C-2.38722388 4.03824877 -1.74627478 2.61941217 0 0 Z " fill="#B4B3B3" transform="translate(190,196)"/>
<path d="M0 0 C1.9375 0.625 1.9375 0.625 4 2 C4.75 5.125 4.75 5.125 5 8 C4.67 7.01 4.34 6.02 4 5 C3.01 5 2.02 5 1 5 C0.67 3.35 0.34 1.7 0 0 Z " fill="#C8C6C5" transform="translate(153,141)"/>
<path d="M0 0 C-1 3 -1 3 -4 5 C-4.99 4.67 -5.98 4.34 -7 4 C-3.375 0 -3.375 0 0 0 Z " fill="#D1D1D1" transform="translate(202,179)"/>
<path d="M0 0 C0.99 0.66 1.98 1.32 3 2 C0.03 4.475 0.03 4.475 -3 7 C-3.66 6.67 -4.32 6.34 -5 6 C-3.35 4.02 -1.7 2.04 0 0 Z " fill="#B9B8B8" transform="translate(196,141)"/>
</svg>
